<svg width="1636" height="768" viewBox="0 0 1636 768" fill="none" xmlns="http://www.w3.org/2000/svg">
  <g fill="#4B1072" stroke="#0B0B0D" stroke-width="2" filter="url(#shadow)">
    <path d="M7 284h128c118 0 225-34 319-102 29-21 56-45 84-68C655 18 794 1 952 1h62l-96 144h-54c-142 0-266 25-358 98-15 12-27 25-36 41h178l-31 139H497c21 35 32 75 32 119 0 124-101 225-225 225S79 666 79 542c0-45 13-86 36-121H7V284Zm297 140c-65 0-118 53-118 118s53 118 118 118 118-53 118-118-53-118-118-118Z"/>
    <path d="M725 217h166L753 666c-6 20 0 30 19 30 34 0 70-43 89-108l73-250h153L993 666c-6 20 0 30 19 30 35 0 72-43 91-108l73-250h153l-96 331c-6 20 0 30 19 30 35 0 72-45 91-110l72-251h153l-96 331c-6 20 1 30 19 30 31 0 65-36 84-92l25-75c15 7 24 19 27 36 4 24-4 55-24 91-38 70-94 108-161 108-62 0-96-32-96-88-40 58-91 88-153 88-63 0-97-33-96-90-40 59-91 90-154 90-62 0-96-32-96-88-39 58-90 88-152 88-82 0-119-55-93-145l125-405Z"/>
    <circle cx="1539" cy="172" r="85"/>
  </g>
  <defs>
    <filter id="shadow" x="-4" y="-4" width="1648" height="780" filterUnits="userSpaceOnUse" color-interpolation-filters="sRGB">
      <feDropShadow dx="8" dy="8" stdDeviation="4" flood-color="#111" flood-opacity="0.65"/>
    </filter>
  </defs>
</svg>
