<svg width="680" height="300" viewBox="0 0 680 300" fill="none" xmlns="http://www.w3.org/2000/svg">
  <defs>
    <filter id="glow" x="-40%" y="-40%" width="180%" height="180%">
      <feGaussianBlur stdDeviation="16" result="blur"/>
      <feColorMatrix in="blur" type="matrix" values="0 0 0 0 0.55 0 0 0 0 0.12 0 0 0 0 1 0 0 0 0.9 0"/>
      <feMerge>
        <feMergeNode/>
        <feMergeNode in="SourceGraphic"/>
      </feMerge>
    </filter>
  </defs>
  <rect width="680" height="300" rx="34" fill="#8B19E6" opacity="0.02"/>
  <g filter="url(#glow)" fill="#fff">
    <path d="M152.8 151.9c29.9 0 47.4-16.7 66.2-34.6 28.6-27.2 61-58 132.3-58h34.3l-25.1 42.8h-14.8c-56.1 0-79.4 22-104.1 45.4-21.7 20.6-46.3 44-88.8 44h-25.6v-39.6h25.6Z"/>
    <path d="M154.9 171.2c-30.8 0-55.8 25-55.8 55.8s25 55.8 55.8 55.8 55.8-25 55.8-55.8-25-55.8-55.8-55.8Zm0 76.4c-11.4 0-20.6-9.2-20.6-20.6s9.2-20.6 20.6-20.6 20.6 9.2 20.6 20.6-9.2 20.6-20.6 20.6Z"/>
    <path d="M227.9 178.6h42.7l-29.5 101.8h-42.7l29.5-101.8Z"/>
    <path d="M306.3 116.1h43.4l-37.8 130.2c-2.3 8.1.1 12.7 6.7 12.7 7.1 0 15.6-6.4 21.1-18.3l18.1-62.1h42.5l-29.5 101.8h-40.5l3.5-14c-12 12.2-26.6 17.8-40.3 17.8-25.1 0-36.5-16.8-28.5-44.3l41.3-123.8Z"/>
    <path d="M405.3 178.6h42.8l-18.3 63.2c-3 10.3.1 17.4 9.2 17.4 10.5 0 20.9-10.5 25.8-27.2l15.6-53.4h42.7l-29.4 101.8h-40.5l3.7-14.9c-12.2 12.7-27.4 18.7-43.1 18.7-27.6 0-38.9-19-30.1-49.1l21.6-56.5Z"/>
    <path d="M552.5 178.6h42.7l-29.5 101.8H523l29.5-101.8Zm27.7-62.7c17.3 0 30.4 12.2 30.4 28.4 0 18-15 32.6-33.3 32.6-17.1 0-30.3-12.3-30.3-28.4 0-18 14.9-32.6 33.2-32.6Z"/>
  </g>
</svg>
