<svg width="160" height="160" viewBox="0 0 160 160" fill="none" xmlns="http://www.w3.org/2000/svg" role="img" aria-labelledby="title">
  <title id="title">Carlos Mendes</title>
  <rect width="160" height="160" rx="38" fill="#F7F8FC"/>
  <circle cx="80" cy="59" r="31" fill="#D7DCE8"/>
  <path d="M45 134c4-29 19-45 35-45s31 16 35 45" fill="#D7DCE8"/>
  <path d="M49 65c8-28 45-34 62-9-9-4-18-3-26 2-13 8-25 10-36 7Z" fill="#111827"/>
  <circle cx="68" cy="65" r="4" fill="#111827"/>
  <circle cx="92" cy="65" r="4" fill="#111827"/>
  <path d="M70 79c7 6 14 6 21 0" stroke="#111827" stroke-width="5" stroke-linecap="round"/>
  <path d="M37 160c2-32 19-55 43-55s41 23 43 55H37Z" fill="#111827"/>
  <path d="M61 111l19 19 19-19" stroke="#8F20E7" stroke-width="8" stroke-linecap="round" stroke-linejoin="round"/>
</svg>
